<?xml version="1.0" encoding="UTF-8" standalone="no"?>
<!DOCTYPE svg PUBLIC "-//W3C//DTD SVG 1.1//EN"
 "http://www.w3.org/Graphics/SVG/1.1/DTD/svg11.dtd">
<!-- Generated by graphviz version 2.44.2~dev.20200818.1009 (20200818.1009)
 -->
<!-- Pages: 1 -->
<svg width="713pt" height="392pt"
 viewBox="0.00 0.00 713.00 392.00" xmlns="http://www.w3.org/2000/svg" xmlns:xlink="http://www.w3.org/1999/xlink">
<g id="graph0" class="graph" transform="scale(1 1) rotate(0) translate(4 388)">
<!-- &#45;1860342096919536870 -->
<g id="node1" class="node">
<title>&#45;1860342096919536870</title>
<polygon fill="none" stroke="black" points="312.5,-297 229.5,-297 229.5,-261 312.5,-261 312.5,-297"/>
<text text-anchor="middle" x="271" y="-275.3" font-family="Times New Roman,serif" font-size="14.00">check ticket</text>
</g>
<!-- &#45;8042229775832746000 -->
<g id="node2" class="node">
<title>&#45;8042229775832746000</title>
<polygon fill="none" stroke="black" points="352,-210 298,-210 298,-174 352,-174 352,-210"/>
<text text-anchor="middle" x="325" y="-188.3" font-family="Times New Roman,serif" font-size="14.00">decide</text>
</g>
<!-- &#45;1860342096919536870&#45;&gt;&#45;8042229775832746000 -->
<g id="edge1" class="edge">
<title>&#45;1860342096919536870&#45;&gt;&#45;8042229775832746000</title>
<path fill="none" stroke="black" stroke-width="1.56" d="M281.93,-260.8C289.61,-248.7 300.03,-232.3 308.69,-218.67"/>
<polygon fill="black" stroke="black" stroke-width="1.56" points="311.68,-220.49 314.09,-210.18 305.77,-216.74 311.68,-220.49"/>
<text text-anchor="middle" x="309.5" y="-231.8" font-family="Times New Roman,serif" font-size="14.00">2D</text>
</g>
<!-- 2073057342205172469 -->
<g id="node3" class="node">
<title>2073057342205172469</title>
<polygon fill="none" stroke="black" points="135,-36 25,-36 25,0 135,0 135,-36"/>
<text text-anchor="middle" x="80" y="-14.3" font-family="Times New Roman,serif" font-size="14.00">examine casually</text>
</g>
<!-- &#45;1860342096919536870&#45;&gt;2073057342205172469 -->
<g id="edge2" class="edge">
<title>&#45;1860342096919536870&#45;&gt;2073057342205172469</title>
<path fill="none" stroke="black" stroke-width="1.28" d="M245.63,-260.89C209.56,-235.21 143.84,-183.24 108,-123 93.87,-99.25 86.72,-68.25 83.2,-46.3"/>
<polygon fill="black" stroke="black" stroke-width="1.28" points="86.65,-45.71 81.75,-36.32 79.73,-46.72 86.65,-45.71"/>
<text text-anchor="middle" x="139.5" y="-144.8" font-family="Times New Roman,serif" font-size="14.00">1D</text>
</g>
<!-- 4883747295636923944 -->
<g id="node4" class="node">
<title>4883747295636923944</title>
<polygon fill="none" stroke="black" points="662.5,-36 537.5,-36 537.5,0 662.5,0 662.5,-36"/>
<text text-anchor="middle" x="600" y="-14.3" font-family="Times New Roman,serif" font-size="14.00">examine thoroughly</text>
</g>
<!-- &#45;1860342096919536870&#45;&gt;4883747295636923944 -->
<g id="edge3" class="edge">
<title>&#45;1860342096919536870&#45;&gt;4883747295636923944</title>
<path fill="none" stroke="black" stroke-width="1.29" d="M312.64,-270.17C381.25,-254.92 517.12,-214.38 584,-123 600.13,-100.96 602.88,-69.18 602.37,-46.56"/>
<polygon fill="black" stroke="black" stroke-width="1.29" points="605.85,-46.11 601.91,-36.28 598.86,-46.43 605.85,-46.11"/>
<text text-anchor="middle" x="576.5" y="-144.8" font-family="Times New Roman,serif" font-size="14.00">1D</text>
</g>
<!-- &#45;3020144354052489548 -->
<g id="node5" class="node">
<title>&#45;3020144354052489548</title>
<polygon fill="none" stroke="black" points="405.5,-123 286.5,-123 286.5,-87 405.5,-87 405.5,-123"/>
<text text-anchor="middle" x="346" y="-101.3" font-family="Times New Roman,serif" font-size="14.00">pay compensation</text>
</g>
<!-- &#45;8042229775832746000&#45;&gt;&#45;3020144354052489548 -->
<g id="edge4" class="edge">
<title>&#45;8042229775832746000&#45;&gt;&#45;3020144354052489548</title>
<path fill="none" stroke="black" stroke-width="2.6" d="M329.25,-173.8C332.12,-162.16 335.98,-146.55 339.27,-133.24"/>
<polygon fill="black" stroke="black" stroke-width="2.6" points="342.76,-133.72 341.76,-123.18 335.96,-132.04 342.76,-133.72"/>
<text text-anchor="middle" x="344.5" y="-144.8" font-family="Times New Roman,serif" font-size="14.00">5D</text>
</g>
<!-- 5565735006975173292 -->
<g id="node7" class="node">
<title>5565735006975173292</title>
<polygon fill="none" stroke="black" points="268.5,-123 161.5,-123 161.5,-87 268.5,-87 268.5,-123"/>
<text text-anchor="middle" x="215" y="-101.3" font-family="Times New Roman,serif" font-size="14.00">reinitiate request</text>
</g>
<!-- &#45;8042229775832746000&#45;&gt;5565735006975173292 -->
<g id="edge5" class="edge">
<title>&#45;8042229775832746000&#45;&gt;5565735006975173292</title>
<path fill="none" stroke="black" stroke-width="1.2" d="M302.74,-173.8C286.19,-161.01 263.42,-143.42 245.23,-129.36"/>
<polygon fill="black" stroke="black" stroke-width="1.2" points="247.28,-126.52 237.23,-123.18 243,-132.06 247.28,-126.52"/>
<text text-anchor="middle" x="287.5" y="-144.8" font-family="Times New Roman,serif" font-size="14.00">18h</text>
</g>
<!-- &#45;1746662516768049121 -->
<g id="node8" class="node">
<title>&#45;1746662516768049121</title>
<polygon fill="none" stroke="black" points="514.5,-123 423.5,-123 423.5,-87 514.5,-87 514.5,-123"/>
<text text-anchor="middle" x="469" y="-101.3" font-family="Times New Roman,serif" font-size="14.00">reject request</text>
</g>
<!-- &#45;8042229775832746000&#45;&gt;&#45;1746662516768049121 -->
<g id="edge6" class="edge">
<title>&#45;8042229775832746000&#45;&gt;&#45;1746662516768049121</title>
<path fill="none" stroke="black" stroke-width="1.47" d="M352.09,-175.01C374.43,-161.82 406.4,-142.95 431.25,-128.28"/>
<polygon fill="black" stroke="black" stroke-width="1.47" points="433.23,-131.18 440.06,-123.08 429.67,-125.15 433.23,-131.18"/>
<text text-anchor="middle" x="413.5" y="-144.8" font-family="Times New Roman,serif" font-size="14.00">1D</text>
</g>
<!-- 2073057342205172469&#45;&gt;&#45;1860342096919536870 -->
<g id="edge7" class="edge">
<title>2073057342205172469&#45;&gt;&#45;1860342096919536870</title>
<path fill="none" stroke="black" stroke-width="1.14" d="M78.37,-36.08C76.56,-63.1 76.13,-116.67 96,-156 121.31,-206.09 177.98,-239.63 220.01,-258.66"/>
<polygon fill="black" stroke="black" stroke-width="1.14" points="218.71,-261.91 229.27,-262.73 221.52,-255.5 218.71,-261.91"/>
<text text-anchor="middle" x="106.5" y="-144.8" font-family="Times New Roman,serif" font-size="14.00">13h</text>
</g>
<!-- 2073057342205172469&#45;&gt;&#45;8042229775832746000 -->
<g id="edge8" class="edge">
<title>2073057342205172469&#45;&gt;&#45;8042229775832746000</title>
<path fill="none" stroke="black" stroke-width="2.17" d="M87.23,-36.13C98.6,-62.35 120.8,-110.69 135,-123 146.91,-133.32 236.01,-162.75 287.86,-179.31"/>
<polygon fill="black" stroke="black" stroke-width="2.17" points="287.1,-182.74 297.7,-182.44 289.23,-176.07 287.1,-182.74"/>
<text text-anchor="middle" x="143.5" y="-101.3" font-family="Times New Roman,serif" font-size="14.00">4D</text>
</g>
<!-- 4883747295636923944&#45;&gt;&#45;1860342096919536870 -->
<g id="edge9" class="edge">
<title>4883747295636923944&#45;&gt;&#45;1860342096919536870</title>
<path fill="none" stroke="black" stroke-width="1.96" d="M609.68,-36.29C612.26,-41.78 614.69,-47.99 616,-54 622.61,-84.34 614.95,-93.58 605,-123 587.87,-173.62 568.21,-183.15 522,-210 459.05,-246.57 375.82,-264.05 322.83,-271.98"/>
<polygon fill="black" stroke="black" stroke-width="1.96" points="322.05,-268.56 312.65,-273.44 323.05,-275.49 322.05,-268.56"/>
<text text-anchor="middle" x="605.5" y="-144.8" font-family="Times New Roman,serif" font-size="14.00">3D</text>
</g>
<!-- 4883747295636923944&#45;&gt;&#45;8042229775832746000 -->
<g id="edge10" class="edge">
<title>4883747295636923944&#45;&gt;&#45;8042229775832746000</title>
<path fill="none" stroke="black" stroke-width="1.23" d="M591.66,-36.29C579.73,-59.26 555.7,-99.67 524,-123 474.7,-159.29 404.61,-177.21 362.11,-185.26"/>
<polygon fill="black" stroke="black" stroke-width="1.23" points="361.41,-181.83 352.19,-187.06 362.65,-188.72 361.41,-181.83"/>
<text text-anchor="middle" x="569.5" y="-101.3" font-family="Times New Roman,serif" font-size="14.00">21h</text>
</g>
<!-- 7996561376292417557 -->
<g id="node6" class="node">
<title>7996561376292417557</title>
<polygon fill="none" stroke="black" points="321.5,-384 220.5,-384 220.5,-348 321.5,-348 321.5,-384"/>
<text text-anchor="middle" x="271" y="-362.3" font-family="Times New Roman,serif" font-size="14.00">register request</text>
</g>
<!-- 7996561376292417557&#45;&gt;&#45;1860342096919536870 -->
<g id="edge11" class="edge">
<title>7996561376292417557&#45;&gt;&#45;1860342096919536870</title>
<path fill="none" stroke="black" stroke-width="1.11" d="M271,-347.8C271,-336.16 271,-320.55 271,-307.24"/>
<polygon fill="black" stroke="black" stroke-width="1.11" points="274.5,-307.18 271,-297.18 267.5,-307.18 274.5,-307.18"/>
<text text-anchor="middle" x="281.5" y="-318.8" font-family="Times New Roman,serif" font-size="14.00">10h</text>
</g>
<!-- 7996561376292417557&#45;&gt;2073057342205172469 -->
<g id="edge12" class="edge">
<title>7996561376292417557&#45;&gt;2073057342205172469</title>
<path fill="none" stroke="black" stroke-width="1.09" d="M220.34,-359.58C141.91,-349.75 0,-325.67 0,-280 0,-280 0,-280 0,-104 0,-78 20.1,-56.7 40.15,-41.93"/>
<polygon fill="black" stroke="black" stroke-width="1.09" points="42.17,-44.79 48.38,-36.21 38.17,-39.05 42.17,-44.79"/>
<text text-anchor="middle" x="7" y="-188.3" font-family="Times New Roman,serif" font-size="14.00">8h</text>
</g>
<!-- 7996561376292417557&#45;&gt;4883747295636923944 -->
<g id="edge13" class="edge">
<title>7996561376292417557&#45;&gt;4883747295636923944</title>
<path fill="none" stroke="black" stroke-width="1.25" d="M321.64,-365.09C431.92,-363.91 684,-353.2 684,-280 684,-280 684,-280 684,-104 684,-77.56 663.18,-56.38 642.27,-41.77"/>
<polygon fill="black" stroke="black" stroke-width="1.25" points="643.96,-38.69 633.68,-36.12 640.11,-44.54 643.96,-38.69"/>
<text text-anchor="middle" x="694.5" y="-188.3" font-family="Times New Roman,serif" font-size="14.00">23h</text>
</g>
<!-- 5565735006975173292&#45;&gt;&#45;1860342096919536870 -->
<g id="edge14" class="edge">
<title>5565735006975173292&#45;&gt;&#45;1860342096919536870</title>
<path fill="none" stroke="black" stroke-width="1.78" d="M220.55,-123.05C230.31,-153.01 250.59,-215.3 262.24,-251.11"/>
<polygon fill="black" stroke="black" stroke-width="1.78" points="259,-252.45 265.43,-260.88 265.66,-250.29 259,-252.45"/>
<text text-anchor="middle" x="257.5" y="-188.3" font-family="Times New Roman,serif" font-size="14.00">2D</text>
</g>
<!-- 5565735006975173292&#45;&gt;2073057342205172469 -->
<g id="edge15" class="edge">
<title>5565735006975173292&#45;&gt;2073057342205172469</title>
<path fill="none" stroke="black" stroke-width="1.22" d="M190.24,-86.96C175.74,-77.11 156.99,-64.61 140,-54 133.24,-49.78 125.97,-45.41 118.9,-41.24"/>
<polygon fill="black" stroke="black" stroke-width="1.22" points="120.52,-38.13 110.12,-36.1 116.98,-44.17 120.52,-38.13"/>
<text text-anchor="middle" x="173.5" y="-57.8" font-family="Times New Roman,serif" font-size="14.00">20h</text>
</g>
<!-- 5565735006975173292&#45;&gt;4883747295636923944 -->
<g id="edge16" class="edge">
<title>5565735006975173292&#45;&gt;4883747295636923944</title>
<path fill="none" stroke="black" d="M268.72,-89.06C271.51,-88.35 274.29,-87.66 277,-87 362.56,-66.28 461.74,-45.95 527.39,-32.99"/>
<polygon fill="black" stroke="black" points="528.09,-36.42 537.22,-31.05 526.74,-29.55 528.09,-36.42"/>
<text text-anchor="middle" x="430.5" y="-57.8" font-family="Times New Roman,serif" font-size="14.00">48m</text>
</g>
</g>
</svg>
